# xmcd
# 
# Track frame offsets:
#     150
#     14881
#     40339
#     62916
#     92866
#     106712
#     134776
#     147562
# 
# Disc length: 2119
# 
# Revision: 2
# Processed by: cddbd v1.5.2PL0 Copyright (c) Steve Scherf et al.
# Submitted via: fre:ac v1.0.17
# 
DISCID=7c084508
DTITLE=Chihiro Yamanaka Trio - After Hours
DYEAR=2008
DGENRE=Jazz
TTITLE0=All Of Me
TTITLE1=There Will Never Be Another You
TTITLE2=Confirmation
TTITLE3=You'd Be So Nice To Come Home To
TTITLE4=Sioux City Sue New
TTITLE5=All The Things You Are
TTITLE6=Over The Rainbow
TTITLE7=Everything Happnes To Me
EXTD=YEAR: 2008
EXTT0=
EXTT1=
EXTT2=
EXTT3=
EXTT4=
EXTT5=
EXTT6=
EXTT7=
PLAYORDER=
